<?xml version="1.0" encoding="UTF-8"?>
<svg version="1.1" xmlns="http://www.w3.org/2000/svg" width="1024" height="1024">
<path d="M0 0 C337.92 0 675.84 0 1024 0 C1024 337.92 1024 675.84 1024 1024 C686.08 1024 348.16 1024 0 1024 C0 686.08 0 348.16 0 0 Z " fill="#72AEC1" transform="translate(0,0)"/>
<path d="M0 0 C337.92 0 675.84 0 1024 0 C1024 337.92 1024 675.84 1024 1024 C686.08 1024 348.16 1024 0 1024 C0 686.08 0 348.16 0 0 Z M53 32 C52.33484375 32.47695313 51.6696875 32.95390625 50.984375 33.4453125 C39.81060251 42.19956733 32.21339754 57.15161355 30 71 C29.73559209 74.7402415 29.7344899 78.46347193 29.75390434 82.21186924 C29.75159685 83.31503159 29.74928936 84.41819394 29.74691195 85.55478546 C29.74161842 89.25155556 29.75058885 92.94815157 29.75949097 96.64491272 C29.75861597 99.31496626 29.7569461 101.98500854 29.75430298 104.65505981 C29.75015195 110.46870681 29.7534341 116.28231278 29.76156974 122.09595501 C29.77378397 130.85288143 29.77430856 139.60978307 29.77263914 148.36671647 C29.77015592 163.04245394 29.77673793 177.7181735 29.78884888 192.39390564 C29.80519562 212.23750448 29.80905488 232.0810727 29.81079102 251.92468262 C29.8212958 299.63729206 29.84921797 347.34989637 29.875 395.0625 C29.91625 501.631875 29.9575 608.20125 30 718 C348.12 718 666.24 718 994 718 C994.0825 611.348125 994.165 504.69625 994.25 394.8125 C994.28641602 361.1006958 994.32283203 327.3888916 994.36035156 292.65551758 C994.37372689 262.51308523 994.37372689 262.51308523 994.3817749 232.37065125 C994.38575716 218.02770121 994.40301876 203.68482641 994.42669371 189.3418975 C994.4505095 174.71601311 994.45934565 160.09017625 994.4537798 145.4642732 C994.45091024 136.76846043 994.45886224 128.07282453 994.48323038 119.3770445 C994.49823658 113.63218363 994.49867533 107.88744013 994.48734136 102.14257116 C994.48130324 98.87244869 994.48372954 95.60273301 994.49953032 92.33263338 C994.59961882 70.32608579 991.94873765 53.85449121 976.33203125 37.12890625 C960.28699848 22.48143078 943.21058655 17.8390947 921.93424129 17.86857224 C920.48411606 17.86692144 919.03399127 17.86483464 917.58386722 17.86235213 C913.59007456 17.8567906 909.59630335 17.85745696 905.60250806 17.85912972 C901.26079702 17.85986098 896.91909203 17.8548375 892.57738358 17.8505547 C883.96212373 17.8429744 875.34687007 17.84078163 866.73160723 17.84022565 C856.41385863 17.83931204 846.09611576 17.83264461 835.77836963 17.82587883 C810.84057922 17.80981641 785.90278942 17.80391537 760.96499476 17.79913008 C749.16909257 17.79679447 737.37319087 17.79319187 725.57728906 17.7894347 C685.20287314 17.77659927 644.82845749 17.76587984 604.45403957 17.7624321 C601.91942682 17.76221047 599.38481407 17.76198868 596.85020131 17.76176675 C594.30945105 17.76154611 591.76870078 17.76132562 589.22795051 17.7611053 C584.13072677 17.76066274 579.03350304 17.76021563 573.9362793 17.75976562 C572.67246352 17.75965623 571.40864775 17.75954684 570.10653453 17.75943414 C529.12163024 17.75580301 488.13674363 17.73988082 447.15184611 17.71657526 C403.82539395 17.69198323 360.4989519 17.67825956 317.17249256 17.67706418 C312.41701289 17.67689272 307.66153322 17.6766773 302.90605354 17.67642975 C301.73511136 17.67637398 300.56416918 17.67631821 299.3577439 17.67626075 C280.50851871 17.67510979 261.65931165 17.664084 242.81009258 17.64954269 C223.86686993 17.63518147 204.92367055 17.6319386 185.98044395 17.63998267 C174.72553914 17.64444061 163.4707094 17.6405717 152.21581445 17.62474416 C144.69599109 17.61499727 137.17622035 17.61616967 129.65639748 17.62618039 C125.37298115 17.63157445 121.08970903 17.63227595 116.80630463 17.61967167 C112.90327366 17.6082827 109.00050342 17.61091159 105.09748122 17.62433875 C103.7003439 17.62675808 102.30318614 17.62424107 100.90607137 17.61594227 C83.37184126 17.51870486 67.14496376 21.31151235 53 32 Z " fill="#111111" transform="translate(0,0)"/>
<path d="M0 0 C1.23169571 -0.00935994 1.23169571 -0.00935994 2.48827416 -0.01890898 C5.22588279 -0.03479945 7.96259613 -0.02225038 10.70021057 -0.00964355 C12.66853859 -0.01506647 14.63686254 -0.02219008 16.60517883 -0.03088379 C21.94200958 -0.04910099 27.27853061 -0.04205581 32.6153667 -0.02936745 C38.20502215 -0.01923012 43.79465135 -0.0286353 49.38430786 -0.03491211 C58.77172092 -0.04218696 68.15900805 -0.03260563 77.54640198 -0.0135498 C88.39202645 0.00821222 99.23735006 0.00117168 110.08296722 -0.02085543 C119.40122913 -0.03902155 128.71940059 -0.0415616 138.03767449 -0.03110075 C143.60018313 -0.0248717 149.16255047 -0.02401396 154.72504997 -0.0372467 C159.9561149 -0.04882191 165.18679293 -0.0407487 170.41781616 -0.01766968 C172.335011 -0.01239127 174.25223852 -0.01388146 176.16942024 -0.02272034 C178.79193103 -0.03369405 181.41321157 -0.01989069 184.03564453 0 C184.78964757 -0.00892289 185.54365061 -0.01784577 186.32050222 -0.02703905 C192.68517214 0.06623466 198.06458698 2.0198609 202.63990784 6.54309082 C203.0949469 7.21211426 203.54998596 7.8811377 204.01881409 8.57043457 C204.49190002 9.24203613 204.96498596 9.9136377 205.45240784 10.60559082 C208.08806501 15.04699235 208.15788166 19.49748115 207.58131409 24.50793457 C205.74105616 30.40727569 202.63586636 34.07083902 197.58131409 37.50793457 C193.46978939 39.56369692 189.88473735 39.58441072 185.37037659 39.55090332 C184.28708069 39.54469971 183.20378479 39.53849609 182.08766174 39.53210449 C180.84701965 39.52014038 180.84701965 39.52014038 179.58131409 39.50793457 C179.40708155 56.95620623 179.3093163 74.40308954 179.29890728 91.85218811 C179.29235117 99.95698629 179.26216611 108.06032389 179.1733551 116.16467285 C179.09587373 123.24092047 179.06577892 130.31563838 179.0891307 137.39229584 C179.09989727 141.12897281 179.08929736 144.86242397 179.02162743 148.59857178 C178.6943465 167.71413438 181.24551218 181.87953595 192.00818825 198.10243225 C194.2899096 201.591464 196.27442505 205.22512826 198.26881409 208.88293457 C198.98797293 210.15891396 199.70904768 211.43381733 200.43287659 212.70715332 C208.89829811 227.65861568 217.13141777 242.74244575 225.4274292 257.78831482 C228.81293031 263.92834388 232.20002988 270.06749039 235.58735657 276.20651245 C237.2520805 279.22361375 238.91669141 282.24077741 240.58131409 285.25793457 C241.24798022 286.4662682 241.91464688 287.67460153 242.58131409 288.88293457 C243.91464742 291.29960124 245.24798075 293.7162679 246.58131409 296.13293457 C246.91130905 296.7310495 247.24130402 297.32916443 247.58129883 297.94540405 C248.24801958 299.15383733 248.91473711 300.36227239 249.58145142 301.57070923 C251.24726406 304.59002801 252.91313263 307.60931591 254.57911682 310.62854004 C257.5893655 316.08407266 260.59919875 321.5398324 263.60696411 326.99673462 C272.28234139 342.73617348 280.98683864 358.45902766 289.72242737 374.16516113 C292.84389758 379.77839597 295.96245099 385.39325087 299.08131409 391.00793457 C300.33130027 393.25794225 301.58130027 395.50794225 302.83131409 397.75793457 C325.33131409 438.25793457 325.33131409 438.25793457 327.20826721 441.63659668 C328.45159079 443.87448189 329.69507894 446.11227567 330.93873596 448.34997559 C333.82830695 453.54961153 336.71639921 458.75004816 339.59828186 463.95394897 C340.93692129 466.37091893 342.27654041 468.78734525 343.6162262 471.20373535 C344.54368638 472.87752764 345.46975631 474.55209005 346.39576721 476.22668457 C349.3010736 481.46597453 352.25541345 486.6637076 355.31178284 491.81652832 C357.86743595 496.17984722 360.04273672 500.42963377 361.89381409 505.13293457 C362.3643219 506.3008252 362.83482971 507.46871582 363.31959534 508.67199707 C370.06632929 527.78266673 367.78265022 549.34418788 359.6408844 567.61877441 C350.00298403 587.37106665 333.95358158 602.33484996 313.58131409 610.50793457 C304.13616024 613.74101166 294.53068623 615.62898398 284.53334141 615.63936234 C283.51792471 615.64244129 283.51792471 615.64244129 282.48199454 615.64558244 C280.22118293 615.65122189 277.96043284 615.64979899 275.69961548 615.64837646 C274.05918112 615.65096187 272.41874739 615.65397552 270.77831453 615.65737987 C266.27578868 615.66543277 261.77327879 615.66723849 257.27074659 615.66797733 C252.41229983 615.66983091 247.5538613 615.67737985 242.69541931 615.68411255 C232.07319859 615.69768499 221.45098166 615.7037191 210.82875371 615.70812321 C204.192358 615.71088788 197.55596374 615.71512569 190.91956902 615.71962738 C172.5350367 615.73181941 154.15050555 615.74211834 135.76596928 615.74550247 C134.0015102 615.74583182 134.0015102 615.74583182 132.20140549 615.74616782 C131.02232529 615.7463861 129.8432451 615.74660438 128.62843519 615.74682927 C126.23927438 615.74727273 123.85011357 615.7477193 121.46095276 615.74816895 C120.27585294 615.74839038 119.09075313 615.7486118 117.86974119 615.74883994 C98.67862738 615.75278565 79.4875516 615.77023304 60.29645247 615.79352847 C40.57969572 615.81726816 20.86295803 615.82970554 1.14618677 615.83087039 C-9.91849276 615.83178576 -20.98312277 615.83750317 -32.04778862 615.85569 C-41.47221159 615.87112644 -50.89656973 615.87619064 -60.32100295 615.8679519 C-65.12498975 615.86405772 -69.92884613 615.86491442 -74.7328167 615.87900925 C-79.14054104 615.89182256 -83.54803797 615.89048608 -87.95576233 615.87841853 C-89.54062087 615.8764743 -91.12549593 615.87948023 -92.71033131 615.8882629 C-114.25338923 615.99997894 -133.50773643 611.49957551 -150.41868591 597.50793457 C-151.2578656 596.84277832 -152.09704529 596.17762207 -152.96165466 595.49230957 C-168.21442261 582.72255036 -177.8207944 564.16454734 -180.41868591 544.50793457 C-181.41949183 526.17402185 -179.64208913 511.36679459 -170.82200623 495.09973145 C-169.16656597 492.04229343 -167.53895938 488.97064925 -165.91087341 485.89855957 C-159.26115068 473.37486677 -152.49621085 460.91700899 -145.56175232 448.54846191 C-143.63105431 445.10190617 -141.71237673 441.64868486 -139.79368591 438.19543457 C-139.39407654 437.47686279 -138.99446716 436.75829102 -138.58274841 436.01794434 C-135.94070887 431.26257614 -133.31120944 426.50039362 -130.68821716 421.73449707 C-129.32767251 419.26306997 -127.96696613 416.79173197 -126.60618591 414.32043457 C-126.08929703 413.38149353 -126.08929703 413.38149353 -125.56196594 412.42358398 C-121.05012583 404.23115345 -116.48588398 396.0720399 -111.85618591 387.94543457 C-106.73550014 378.94907692 -101.82381535 369.84848121 -96.9624176 360.7104187 C-92.1752821 351.71690326 -87.24765709 342.81509033 -82.20091248 333.96472168 C-78.26522616 327.0482071 -74.44415599 320.07558322 -70.66868591 313.07043457 C-67.19540626 306.62603004 -63.71569418 300.18969831 -60.10618591 293.82043457 C-55.90918707 286.41122418 -51.78320128 278.96317573 -47.66868591 271.50793457 C-47.32304596 270.88182281 -46.97740601 270.25571106 -46.62129211 269.61062622 C-41.92545102 261.10032821 -37.27858371 252.5651669 -32.66868591 244.00793457 C-28.28447559 235.87574849 -23.77993995 227.82555302 -19.16575623 219.82189941 C-13.94165679 210.73553843 -8.89567426 201.55227452 -3.84910583 192.36657715 C-3.51855698 191.76520432 -3.18800812 191.16383148 -2.84744263 190.54423523 C-1.94790976 188.9070611 -1.04946932 187.26928689 -0.15110779 185.63146973 C1.58131409 182.50793457 1.58131409 182.50793457 3.6554718 179.64265442 C6.71954866 174.23448776 6.1516258 168.27853437 6.12721252 162.22888184 C6.13595716 160.88795274 6.14644605 159.54703406 6.15853882 158.20613098 C6.18631107 154.58261046 6.18980547 150.95943191 6.18881893 147.33582044 C6.19195564 143.54276774 6.21758954 139.74986734 6.24079895 135.95689392 C6.28130467 128.78185404 6.30168683 121.60690493 6.31477284 114.43176836 C6.33066134 106.25997531 6.3690847 98.08833631 6.40936613 89.91663277 C6.49169073 73.11377771 6.54582922 56.31095523 6.58131409 39.50793457 C5.62362122 39.53258789 4.66592834 39.55724121 3.67921448 39.5826416 C1.79190613 39.61140381 1.79190613 39.61140381 -0.13352966 39.64074707 C-1.37997253 39.66540039 -2.62641541 39.69005371 -3.91062927 39.7154541 C-9.71382371 39.37216541 -12.98892631 36.94990402 -16.97337341 32.94543457 C-21.5156058 27.8129686 -21.88907326 23.27855264 -21.82493591 16.65637207 C-21.17701376 11.63497537 -19.02913865 8.01240533 -15.41868591 4.50793457 C-10.06890452 0.90062885 -6.38622711 -0.07535181 0 0 Z " fill="#72AEC2" transform="translate(418.41868591308594,58.4920654296875)"/>
<path d="M0 0 C1.23169571 -0.00935994 1.23169571 -0.00935994 2.48827416 -0.01890898 C5.22588279 -0.03479945 7.96259613 -0.02225038 10.70021057 -0.00964355 C12.66853859 -0.01506647 14.63686254 -0.02219008 16.60517883 -0.03088379 C21.94200958 -0.04910099 27.27853061 -0.04205581 32.6153667 -0.02936745 C38.20502215 -0.01923012 43.79465135 -0.0286353 49.38430786 -0.03491211 C58.77172092 -0.04218696 68.15900805 -0.03260563 77.54640198 -0.0135498 C88.39202645 0.00821222 99.23735006 0.00117168 110.08296722 -0.02085543 C119.40122913 -0.03902155 128.71940059 -0.0415616 138.03767449 -0.03110075 C143.60018313 -0.0248717 149.16255047 -0.02401396 154.72504997 -0.0372467 C159.9561149 -0.04882191 165.18679293 -0.0407487 170.41781616 -0.01766968 C172.335011 -0.01239127 174.25223852 -0.01388146 176.16942024 -0.02272034 C178.79193103 -0.03369405 181.41321157 -0.01989069 184.03564453 0 C184.78964757 -0.00892289 185.54365061 -0.01784577 186.32050222 -0.02703905 C192.68517214 0.06623466 198.06458698 2.0198609 202.63990784 6.54309082 C203.0949469 7.21211426 203.54998596 7.8811377 204.01881409 8.57043457 C204.49190002 9.24203613 204.96498596 9.9136377 205.45240784 10.60559082 C208.08806501 15.04699235 208.15788166 19.49748115 207.58131409 24.50793457 C205.74105616 30.40727569 202.63586636 34.07083902 197.58131409 37.50793457 C193.46978939 39.56369692 189.88473735 39.58441072 185.37037659 39.55090332 C184.28708069 39.54469971 183.20378479 39.53849609 182.08766174 39.53210449 C180.84701965 39.52014038 180.84701965 39.52014038 179.58131409 39.50793457 C179.40708155 56.95620623 179.3093163 74.40308954 179.29890728 91.85218811 C179.29235117 99.95698629 179.26216611 108.06032389 179.1733551 116.16467285 C179.09587373 123.24092047 179.06577892 130.31563838 179.0891307 137.39229584 C179.09989727 141.12897281 179.08929736 144.86242397 179.02162743 148.59857178 C178.6943465 167.71413438 181.24551218 181.87953595 192.00818825 198.10243225 C194.2899096 201.591464 196.27442505 205.22512826 198.26881409 208.88293457 C198.98797293 210.15891396 199.70904768 211.43381733 200.43287659 212.70715332 C208.89829811 227.65861568 217.13141777 242.74244575 225.4274292 257.78831482 C228.81293031 263.92834388 232.20002988 270.06749039 235.58735657 276.20651245 C237.2520805 279.22361375 238.91669141 282.24077741 240.58131409 285.25793457 C241.24798022 286.4662682 241.91464688 287.67460153 242.58131409 288.88293457 C243.91464742 291.29960124 245.24798075 293.7162679 246.58131409 296.13293457 C246.91130905 296.7310495 247.24130402 297.32916443 247.58129883 297.94540405 C248.24801958 299.15383733 248.91473711 300.36227239 249.58145142 301.57070923 C251.24726406 304.59002801 252.91313263 307.60931591 254.57911682 310.62854004 C257.5893655 316.08407266 260.59919875 321.5398324 263.60696411 326.99673462 C272.28234139 342.73617348 280.98683864 358.45902766 289.72242737 374.16516113 C292.84389758 379.77839597 295.96245099 385.39325087 299.08131409 391.00793457 C300.33130027 393.25794225 301.58130027 395.50794225 302.83131409 397.75793457 C325.33131409 438.25793457 325.33131409 438.25793457 327.20826721 441.63659668 C328.45159079 443.87448189 329.69507894 446.11227567 330.93873596 448.34997559 C333.82830695 453.54961153 336.71639921 458.75004816 339.59828186 463.95394897 C340.93692129 466.37091893 342.27654041 468.78734525 343.6162262 471.20373535 C344.54368638 472.87752764 345.46975631 474.55209005 346.39576721 476.22668457 C349.3010736 481.46597453 352.25541345 486.6637076 355.31178284 491.81652832 C357.86743595 496.17984722 360.04273672 500.42963377 361.89381409 505.13293457 C362.3643219 506.3008252 362.83482971 507.46871582 363.31959534 508.67199707 C370.06632929 527.78266673 367.78265022 549.34418788 359.6408844 567.61877441 C350.00298403 587.37106665 333.95358158 602.33484996 313.58131409 610.50793457 C304.13616024 613.74101166 294.53068623 615.62898398 284.53334141 615.63936234 C283.51792471 615.64244129 283.51792471 615.64244129 282.48199454 615.64558244 C280.22118293 615.65122189 277.96043284 615.64979899 275.69961548 615.64837646 C274.05918112 615.65096187 272.41874739 615.65397552 270.77831453 615.65737987 C266.27578868 615.66543277 261.77327879 615.66723849 257.27074659 615.66797733 C252.41229983 615.66983091 247.5538613 615.67737985 242.69541931 615.68411255 C232.07319859 615.69768499 221.45098166 615.7037191 210.82875371 615.70812321 C204.192358 615.71088788 197.55596374 615.71512569 190.91956902 615.71962738 C172.5350367 615.73181941 154.15050555 615.74211834 135.76596928 615.74550247 C134.0015102 615.74583182 134.0015102 615.74583182 132.20140549 615.74616782 C131.02232529 615.7463861 129.8432451 615.74660438 128.62843519 615.74682927 C126.23927438 615.74727273 123.85011357 615.7477193 121.46095276 615.74816895 C120.27585294 615.74839038 119.09075313 615.7486118 117.86974119 615.74883994 C98.67862738 615.75278565 79.4875516 615.77023304 60.29645247 615.79352847 C40.57969572 615.81726816 20.86295803 615.82970554 1.14618677 615.83087039 C-9.91849276 615.83178576 -20.98312277 615.83750317 -32.04778862 615.85569 C-41.47221159 615.87112644 -50.89656973 615.87619064 -60.32100295 615.8679519 C-65.12498975 615.86405772 -69.92884613 615.86491442 -74.7328167 615.87900925 C-79.14054104 615.89182256 -83.54803797 615.89048608 -87.95576233 615.87841853 C-89.54062087 615.8764743 -91.12549593 615.87948023 -92.71033131 615.8882629 C-114.25338923 615.99997894 -133.50773643 611.49957551 -150.41868591 597.50793457 C-151.2578656 596.84277832 -152.09704529 596.17762207 -152.96165466 595.49230957 C-168.21442261 582.72255036 -177.8207944 564.16454734 -180.41868591 544.50793457 C-181.41949183 526.17402185 -179.64208913 511.36679459 -170.82200623 495.09973145 C-169.16656597 492.04229343 -167.53895938 488.97064925 -165.91087341 485.89855957 C-159.26115068 473.37486677 -152.49621085 460.91700899 -145.56175232 448.54846191 C-143.63105431 445.10190617 -141.71237673 441.64868486 -139.79368591 438.19543457 C-139.39407654 437.47686279 -138.99446716 436.75829102 -138.58274841 436.01794434 C-135.94070887 431.26257614 -133.31120944 426.50039362 -130.68821716 421.73449707 C-129.32767251 419.26306997 -127.96696613 416.79173197 -126.60618591 414.32043457 C-126.08929703 413.38149353 -126.08929703 413.38149353 -125.56196594 412.42358398 C-121.05012583 404.23115345 -116.48588398 396.0720399 -111.85618591 387.94543457 C-106.73550014 378.94907692 -101.82381535 369.84848121 -96.9624176 360.7104187 C-92.1752821 351.71690326 -87.24765709 342.81509033 -82.20091248 333.96472168 C-78.26522616 327.0482071 -74.44415599 320.07558322 -70.66868591 313.07043457 C-67.19540626 306.62603004 -63.71569418 300.18969831 -60.10618591 293.82043457 C-55.90918707 286.41122418 -51.78320128 278.96317573 -47.66868591 271.50793457 C-47.32304596 270.88182281 -46.97740601 270.25571106 -46.62129211 269.61062622 C-41.92545102 261.10032821 -37.27858371 252.5651669 -32.66868591 244.00793457 C-28.28447559 235.87574849 -23.77993995 227.82555302 -19.16575623 219.82189941 C-13.94165679 210.73553843 -8.89567426 201.55227452 -3.84910583 192.36657715 C-3.51855698 191.76520432 -3.18800812 191.16383148 -2.84744263 190.54423523 C-1.94790976 188.9070611 -1.04946932 187.26928689 -0.15110779 185.63146973 C1.58131409 182.50793457 1.58131409 182.50793457 3.6554718 179.64265442 C6.71954866 174.23448776 6.1516258 168.27853437 6.12721252 162.22888184 C6.13595716 160.88795274 6.14644605 159.54703406 6.15853882 158.20613098 C6.18631107 154.58261046 6.18980547 150.95943191 6.18881893 147.33582044 C6.19195564 143.54276774 6.21758954 139.74986734 6.24079895 135.95689392 C6.28130467 128.78185404 6.30168683 121.60690493 6.31477284 114.43176836 C6.33066134 106.25997531 6.3690847 98.08833631 6.40936613 89.91663277 C6.49169073 73.11377771 6.54582922 56.31095523 6.58131409 39.50793457 C5.62362122 39.53258789 4.66592834 39.55724121 3.67921448 39.5826416 C1.79190613 39.61140381 1.79190613 39.61140381 -0.13352966 39.64074707 C-1.37997253 39.66540039 -2.62641541 39.69005371 -3.91062927 39.7154541 C-9.71382371 39.37216541 -12.98892631 36.94990402 -16.97337341 32.94543457 C-21.5156058 27.8129686 -21.88907326 23.27855264 -21.82493591 16.65637207 C-21.17701376 11.63497537 -19.02913865 8.01240533 -15.41868591 4.50793457 C-10.06890452 0.90062885 -6.38622711 -0.07535181 0 0 Z M40.58131409 39.50793457 C40.61225159 54.82199707 40.61225159 54.82199707 40.64381409 70.44543457 C40.6390827 76.93506426 40.63232277 83.42458826 40.61647034 89.91418457 C40.59171343 100.20210129 40.57495143 110.48956132 40.61207581 120.77746582 C40.63908355 128.27244762 40.63760874 135.7668134 40.603055 143.26177311 C40.58575188 147.22424797 40.58194777 151.18562097 40.61235046 155.14804077 C40.8314951 185.98841844 40.8314951 185.98841844 31.58131409 199.50793457 C30.2456989 201.91899056 29.00641215 204.36631585 27.75709534 206.82434082 C27.12425354 208.02122432 26.48907362 209.21687723 25.8506012 210.4107666 C25.37226334 211.30580902 25.37226334 211.30580902 24.88426208 212.21893311 C24.55741425 212.82992859 24.23056641 213.44092407 23.89381409 214.07043457 C23.55093353 214.71301208 23.20805298 215.3555896 22.8547821 216.01763916 C17.85300496 225.38548046 12.71559322 234.66486206 7.44581604 243.88513184 C3.19110063 251.35591732 -0.88211016 258.91789756 -4.91868591 266.50793457 C-10.00000649 276.06149114 -15.21183413 285.52733033 -20.57493591 294.92590332 C-24.63416643 302.06181223 -28.54726693 309.26862644 -32.41868591 316.50793457 C-36.79625131 324.69370441 -41.25557697 332.82041146 -45.85618591 340.88293457 C-50.74560558 349.45611218 -55.46460722 358.11152461 -60.10618591 366.82043457 C-65.32480033 376.61022961 -70.61174115 386.3539972 -76.03440857 396.03234863 C-78.90355744 401.1634191 -81.75262836 406.30568283 -84.60618591 411.44543457 C-85.90297708 413.78011662 -87.1998322 416.11476297 -88.49681091 418.44934082 C-88.82205246 419.03481186 -89.14729401 419.6202829 -89.48239136 420.22349548 C-91.70483892 424.22387356 -93.92868489 428.22347211 -96.15306091 432.22277832 C-104.24455995 446.77359935 -112.3034129 461.3420355 -120.33865356 475.92396545 C-122.46543819 479.78230688 -124.59657458 483.63821405 -126.73071289 487.49249268 C-128.19260907 490.13280244 -129.65334147 492.77375528 -131.11402893 495.41473389 C-131.80704025 496.66696297 -132.50060667 497.91888504 -133.19477844 499.17047119 C-141.66156668 514.4372775 -148.96296055 528.31562455 -144.50852966 546.15246582 C-142.12088652 552.74727438 -139.08717267 558.28339976 -134.41868591 563.50793457 C-133.68585388 564.3954541 -133.68585388 564.3954541 -132.93821716 565.30090332 C-126.24889308 572.78303618 -116.31349296 577.96826251 -106.41868591 579.50793457 C-101.09090012 579.80515339 -95.7683946 579.78688033 -90.43450928 579.77536011 C-88.79519717 579.77909911 -87.15588684 579.78370163 -85.51657933 579.78909075 C-81.0219052 579.80130532 -76.52730558 579.8010621 -72.03261864 579.798702 C-67.18105624 579.79829344 -62.3295176 579.80933675 -57.47796631 579.81881714 C-47.97631105 579.83541989 -38.47468062 579.84092637 -28.97301207 579.84204189 C-21.24781447 579.84299276 -13.52262505 579.84710497 -5.79743004 579.85344315 C16.11379161 579.87105394 38.02499368 579.88028232 59.93622246 579.8787822 C61.11710807 579.87870229 62.29799367 579.87862237 63.5146637 579.87854004 C65.28815964 579.8784174 65.28815964 579.8784174 67.09748379 579.87829228 C86.25501106 579.87747953 105.41245967 579.89661482 124.56996419 579.92481677 C144.2494518 579.9535581 163.92890106 579.96735636 183.60841018 579.96562922 C194.65342996 579.96496573 205.69836729 579.97044012 216.74336815 579.99198532 C226.14810825 580.01021357 235.55272853 580.01453095 244.95747866 580.00096647 C249.75303467 579.99444503 254.54836093 579.99428987 259.34389496 580.01167297 C263.74038437 580.02744523 268.13646264 580.02449786 272.53294227 580.00710471 C274.11704426 580.00404393 275.70117724 580.0076322 277.28524264 580.01882486 C292.69656358 580.12044059 306.71079501 577.04116734 318.33131409 566.25793457 C327.78529726 556.09212208 332.03137805 543.86128115 332.01490784 530.12512207 C331.04073558 521.99824361 328.10778979 514.94667122 324.20631409 507.82043457 C323.77423645 507.01501221 323.34215881 506.20958984 322.89698792 505.37976074 C318.91255443 498.00141482 314.76933715 490.71134418 310.61988831 483.42492676 C306.59963515 476.35446103 302.68954835 469.23047594 298.83131409 462.07043457 C294.99984861 454.96202076 291.1398837 447.87611028 287.16090393 440.84924316 C283.5581531 434.48379441 280.00616969 428.09050803 276.45631409 421.69543457 C276.1364856 421.11933441 275.8166571 420.54323425 275.48713684 419.94967651 C273.84218049 416.9866455 272.19749846 414.02346238 270.55299377 411.06018066 C267.39773592 405.37500512 264.23927804 399.69160721 261.08131409 394.00793457 C260.46232239 392.89362061 259.84333069 391.77930664 259.20558167 390.63122559 C256.09386884 385.02949532 252.98117101 379.42831663 249.86647034 373.82824707 C241.75500787 359.24146216 233.67635562 344.63696232 225.62055969 330.01939392 C223.24107186 325.70250083 220.85733386 321.3879722 218.47193909 317.07434082 C211.5993794 304.64273809 204.76845042 292.19101618 198.02198792 279.69030762 C194.7531666 273.64270714 191.42380935 267.63505855 188.03053284 261.65661621 C184.07056634 254.65403958 180.26720891 247.56700219 176.44630432 240.48791504 C173.21851663 234.51338384 169.95829141 228.55975695 166.64381409 222.63293457 C162.73102516 215.61695576 158.86413952 208.57613702 155.03489685 201.51422119 C154.10182238 199.79570626 153.1640079 198.07976763 152.22608948 196.3638916 C151.6523761 195.30283203 151.07866272 194.24177246 150.48756409 193.14855957 C149.97516174 192.20528809 149.4627594 191.2620166 148.93482971 190.29016113 C146.50127642 185.28785714 145.33240871 180.96408885 145.30284119 175.39553833 C145.28609596 173.59095154 145.28609596 173.59095154 145.26901245 171.74990845 C145.26685226 170.44367523 145.26469208 169.13744202 145.26246643 167.79162598 C145.25316074 166.39173813 145.24299112 164.9918558 145.23202515 163.59197998 C145.20478319 159.80321159 145.18959302 156.01448026 145.17659712 152.22563982 C145.16094111 148.26178277 145.13415878 144.29800111 145.10856628 140.334198 C145.06182217 132.83332436 145.02505696 125.33243646 144.99189341 117.83149183 C144.94648517 107.69182565 144.8856285 97.55225289 144.82564545 87.41266441 C144.73158851 71.44446802 144.65814313 55.47624467 144.58131409 39.50793457 C110.26131409 39.50793457 75.94131409 39.50793457 40.58131409 39.50793457 Z " fill="#111111" transform="translate(418.41868591308594,58.4920654296875)"/>
<path d="M0 0 C5.07001502 1.17501206 10.15287712 2.28497638 15.24511719 3.359375 C15.94556152 3.51075928 16.64600586 3.66214355 17.36767578 3.81811523 C47.73385565 10.22117114 79.97487814 4.51727482 109.99511719 -1.078125 C116.53701046 9.78833715 122.74385075 20.82698298 128.84909058 31.94314575 C133.3692876 40.17301352 137.92188307 48.38124426 142.55761719 56.546875 C149.14047567 68.14810633 155.61645479 79.80753277 162.08349609 91.47363281 C165.23920871 97.16600637 168.39802544 102.85665389 171.55761719 108.546875 C172.47414063 110.19864746 172.47414063 110.19864746 173.40917969 111.88378906 C176.59546718 117.62146427 179.79459726 123.35154069 183.01464844 129.0703125 C183.98519165 130.79580322 183.98519165 130.79580322 184.9753418 132.55615234 C186.21213418 134.75308827 187.45113027 136.94878546 188.69262695 139.14306641 C189.24362061 140.12194824 189.79461426 141.10083008 190.36230469 142.109375 C190.84812012 142.96917969 191.33393555 143.82898438 191.83447266 144.71484375 C195.30203 151.30860024 195.23638587 159.85565002 193.08886719 166.890625 C189.51821017 174.48971557 184.71709178 178.58425576 176.99511719 181.921875 C173.80332434 182.29907316 173.80332434 182.29907316 170.29772377 182.30219173 C169.64655035 182.30685165 168.99537694 182.31151157 168.324471 182.3163127 C166.14519477 182.32825176 163.96654326 182.31887197 161.78726196 182.30955505 C160.20798278 182.31372847 158.62870659 182.31920603 157.04943597 182.32587487 C152.71157449 182.34034735 148.37390272 182.33607913 144.03603077 182.32870805 C139.35698467 182.32398312 134.67798002 182.33648028 129.99894714 182.34672546 C120.83289543 182.36393229 111.66691222 182.36474953 102.50084855 182.35951256 C95.05110972 182.35547298 87.60139115 182.3569119 80.15165329 182.36226082 C79.09181266 182.36300924 78.03197203 182.36375766 76.94001501 182.36452876 C74.78701906 182.36606022 72.63402311 182.36759857 70.48102717 182.36914373 C50.28480323 182.3828757 30.08861801 182.37742628 9.89239495 182.36595852 C-8.58642348 182.35602634 -27.06514178 182.36896532 -45.54394476 182.39289271 C-64.51483195 182.41727232 -83.48567249 182.42689432 -102.45657504 182.42023998 C-113.1085448 182.41674512 -123.76043755 182.41899745 -134.41239548 182.43649101 C-143.48063527 182.45119879 -152.54874383 182.45186711 -161.61698101 182.4344201 C-166.24380482 182.42589582 -170.87039404 182.42379534 -175.49720573 182.43907166 C-179.7337737 182.45288633 -183.9699054 182.44819723 -188.20644791 182.42883242 C-189.73802802 182.42506217 -191.26964279 182.42802389 -192.80119209 182.43844407 C-201.99729095 182.49655618 -208.97749292 182.24858338 -216.24707031 175.9921875 C-216.78589844 175.35023438 -217.32472656 174.70828125 -217.87988281 174.046875 C-218.43417969 173.41007813 -218.98847656 172.77328125 -219.55957031 172.1171875 C-223.97125542 165.41619553 -224.10102455 157.64151147 -223.00488281 149.921875 C-220.93646687 144.23828047 -218.0225031 139.14852975 -215.00488281 133.921875 C-214.02528504 132.18456989 -213.04751186 130.44623506 -212.07128906 128.70703125 C-210.45714403 125.83897633 -208.83828975 122.97397938 -207.20727539 120.11547852 C-203.02230047 112.77847966 -198.98597501 105.37120885 -195.00488281 97.921875 C-190.1334958 88.81721242 -185.14816927 79.7901485 -180.04003906 70.81640625 C-175.62765088 63.05485595 -171.3065366 55.24506276 -167.00488281 47.421875 C-155.41984635 26.36030843 -155.41984635 26.36030843 -150.42871094 17.79833984 C-147.99166218 13.59843209 -145.75292224 9.48889882 -143.93847656 4.98046875 C-142.08857635 0.57083383 -140.42518238 -2.66731309 -137.00488281 -6.078125 C-131.39534438 -8.14826071 -125.17833561 -7.33090571 -119.31787109 -7.09570312 C-113.65312167 -7.06564697 -108.05689212 -7.78636804 -102.43536377 -8.415802 C-66.94357756 -12.29779845 -34.4993914 -8.01471839 0 0 Z " fill="#111111" transform="translate(526.0048828125,429.078125)"/>
<path d="M0 0 C1.41408966 1.18691641 2.8110171 2.39466876 4.1875 3.625 C4.81398438 4.17027344 5.44046875 4.71554687 6.0859375 5.27734375 C16.93976522 15.34912711 22.82768621 31.00963704 23.390625 45.65625 C23.74999125 66.27834385 19.09130677 83.11225586 4.8125 98.4375 C-6.26010123 108.93261862 -21.65115558 114.13299158 -36.70703125 113.80859375 C-50.64078253 112.98483739 -62.31496065 108.96292744 -72.8125 99.625 C-73.71742188 98.87669922 -73.71742188 98.87669922 -74.640625 98.11328125 C-84.95113541 88.89419874 -91.14110283 74.27068762 -91.99902344 60.66748047 C-92.50355951 46.85945394 -92.62205574 34.20298269 -86.25 21.6875 C-85.89993896 20.9972876 -85.54987793 20.3070752 -85.18920898 19.59594727 C-77.70359127 5.42810298 -65.631902 -3.87531959 -50.67578125 -9.125 C-34.17383518 -13.65124806 -13.61727984 -10.28809767 0 0 Z " fill="#EEEFEE" transform="translate(251.8125,779.375)"/>
<path d="M0 0 C8.58 0 17.16 0 26 0 C27.8369854 4.06087012 29.67090961 8.12307184 31.5 12.1875 C31.78267731 12.815495 32.06535461 13.44348999 32.3565979 14.09051514 C36.08603224 22.38622867 39.75487136 30.70611063 43.35546875 39.05859375 C43.71685944 39.89688217 44.07825012 40.73517059 44.45059204 41.59886169 C46.23673384 45.74616907 48.01745427 49.89573996 49.79296875 54.04760742 C50.44919588 55.57601893 51.10544482 57.10442108 51.76171875 58.6328125 C52.06015182 59.334702 52.3585849 60.03659149 52.6660614 60.75975037 C53.93480239 63.7096918 55.21234266 66.31851398 57 69 C57.32572998 68.27337158 57.65145996 67.54674316 57.98706055 66.7980957 C58.67989136 65.25255005 58.67989136 65.25255005 59.38671875 63.67578125 C59.90685547 62.51546387 60.42699219 61.35514648 60.96289062 60.15966797 C62.12429983 57.56882563 63.28576437 54.97800811 64.44726562 52.38720703 C67.19925698 46.2486014 69.95102 40.10989423 72.7011261 33.97044373 C73.85680597 31.39049766 75.01270108 28.81064806 76.16860962 26.23080444 C76.97809269 24.42390084 77.7872684 22.61685955 78.59643555 20.80981445 C79.35307495 19.12118286 79.35307495 19.12118286 80.125 17.3984375 C80.77855469 15.93929932 80.77855469 15.93929932 81.4453125 14.45068359 C83.6180214 9.62827976 85.81128976 4.81516253 88 0 C96.25 0 104.5 0 113 0 C114.39954431 15.901719 115.50282661 31.77970604 116.31918335 47.7210083 C116.62779283 53.74412784 116.94735652 59.76665488 117.26953125 65.7890625 C117.33175369 66.95218964 117.39397614 68.11531677 117.45808411 69.31369019 C117.99057686 79.11835629 118.63238232 88.91021116 119.44140625 98.69628906 C120.00870792 105.81445784 120.0626455 112.85841337 120 120 C112.74 120 105.48 120 98 120 C97.47288976 112.06250482 96.95034979 104.1247465 96.43539429 96.18645477 C96.19599191 92.49862839 95.95474963 88.81094341 95.70898438 85.12353516 C95.47095854 81.55114767 95.23818079 77.97845031 95.00872803 74.40550232 C94.87926263 72.40946909 94.7446504 70.41377175 94.60986328 68.41809082 C94.02804818 59.26328282 93.9047444 50.16759554 94 41 C93.34 41 92.68 41 92 41 C91.91097412 41.65492432 91.82194824 42.30984863 91.73022461 42.98461914 C90.7575162 47.00130972 89.07318625 50.51693625 87.31640625 54.24609375 C86.94481888 55.0462793 86.57323151 55.84646484 86.19038391 56.67089844 C84.98595038 59.26206035 83.77422177 61.84973952 82.5625 64.4375 C81.73848233 66.20747855 80.91507826 67.97774288 80.09228516 69.74829102 C78.86773218 72.383265 77.64285364 75.01807974 76.41595459 77.65196228 C73.19706663 84.56320832 70.01988617 91.49221937 66.875 98.4375 C66.26507202 99.7831604 66.26507202 99.7831604 65.64282227 101.15600586 C64.76079455 103.10351198 63.88018141 105.05165873 63 107 C59.04 107 55.08 107 51 107 C50.37146118 105.65095581 50.37146118 105.65095581 49.73022461 104.2746582 C46.60345036 97.56714715 43.46900078 90.86338638 40.31640625 84.16796875 C33.73117027 70.17544035 27.16609868 56.18399695 21 42 C20.05458555 44.83624334 19.76008866 47.0041483 19.55102539 49.96435547 C19.4774733 50.97746796 19.4039212 51.99058044 19.32814026 53.03439331 C19.25208054 54.13421539 19.17602081 55.23403748 19.09765625 56.3671875 C18.97371742 58.08399216 18.97371742 58.08399216 18.84727478 59.83547974 C18.58201724 63.51506797 18.32184889 67.19499093 18.0625 70.875 C16.90028059 87.27386084 15.63011952 103.64032517 14 120 C6.74 120 -0.52 120 -8 120 C-7.3426142 108.6355503 -6.63845092 97.27598791 -5.87890625 85.91796875 C-5.77298718 84.32782746 -5.66710743 82.73768356 -5.56126404 81.14753723 C-5.3406706 77.83571537 -5.11960732 74.52392531 -4.89819336 71.2121582 C-4.62056097 67.05896312 -4.34411497 62.9056901 -4.0680027 58.75239372 C-2.76519319 39.16416723 -1.41600815 19.58042902 0 0 Z " fill="#EFEFEE" transform="translate(843,770)"/>
<path d="M0 0 C6.27 0 12.54 0 19 0 C24.99824789 6.48647737 24.99824789 6.48647737 26.640625 9.7109375 C29.143403 14.3623268 32.10064918 18.61336815 35.125 22.9375 C36.23613382 24.56390396 37.34545987 26.1915442 38.453125 27.8203125 C42.80786295 34.19602031 47.22635926 40.52722066 51.65283203 46.85327148 C58.8585885 57.17603888 65.90637509 67.59601679 73 78 C73.33 52.26 73.66 26.52 74 0 C81.26 0 88.52 0 96 0 C96 39.27 96 78.54 96 119 C89.73 119 83.46 119 77 119 C70.50504421 112.08601481 70.50504421 112.08601481 68.66015625 108.66015625 C66.27741652 104.42427544 63.648784 100.41835277 60.92041016 96.39794922 C59.10988759 93.72771156 57.32764374 91.04038719 55.55078125 88.34765625 C50.63623409 80.92412464 45.59433131 73.58861448 40.54931641 66.25341797 C39.00344309 64.00500783 37.46037026 61.75469912 35.91796875 59.50390625 C34.94539482 58.08588104 33.97274233 56.6679097 33 55.25 C32.56727783 54.61860107 32.13455566 53.98720215 31.6887207 53.33666992 C28.83845723 49.18835475 25.92655142 45.09717199 23 41 C22.67 66.74 22.34 92.48 22 119 C14.74 119 7.48 119 0 119 C0 79.73 0 40.46 0 0 Z " fill="#EEEEED" transform="translate(579,771)"/>
<path d="M0 0 C7.26 0 14.52 0 22 0 C22.0093457 2.46718506 22.01869141 4.93437012 22.02832031 7.47631836 C22.06216921 15.65078226 22.11776206 23.82499582 22.18390274 31.999259 C22.22332106 36.95272536 22.2555372 41.90601546 22.27099609 46.85961914 C22.2861999 51.64497925 22.32071135 56.42985458 22.36830902 61.21499825 C22.38308449 63.03567847 22.3910388 64.85642791 22.39188385 66.67716789 C22.31698977 81.82328072 22.31698977 81.82328072 29.375 94.875 C34.89601675 99.34439451 39.46729652 100.53373735 46.375 100.4375 C47.12942383 100.42992676 47.88384766 100.42235352 48.66113281 100.41455078 C55.14649836 100.22198574 59.71439785 99.10685177 64.5078125 94.57421875 C69.52603662 89.02549665 70.298705 83.87324823 70.31884766 76.62963867 C70.32889328 75.79985504 70.3389389 74.97007141 70.34928894 74.11514282 C70.38008638 71.38275826 70.39714649 68.65047154 70.4140625 65.91796875 C70.43277691 64.01938538 70.45235053 62.1208103 70.4727478 60.22224426 C70.52404608 55.23284802 70.56368419 50.24342482 70.60089111 45.25390625 C70.64094516 40.15943749 70.69203113 35.06508066 70.7421875 29.97070312 C70.83891961 19.98053961 70.92231322 9.9903298 71 0 C78.59 0 86.18 0 94 0 C94.06806464 10.46694542 94.1229817 20.93374127 94.15543652 31.40085888 C94.17102152 36.26235942 94.1921272 41.12369931 94.22631836 45.98510742 C94.25916951 50.68597787 94.27690674 55.38669481 94.28463173 60.08767128 C94.29012939 61.87161992 94.30086348 63.65556119 94.31719017 65.43944359 C94.43759389 79.15368126 94.04495028 92.2898718 86 104 C85.58105469 104.61359375 85.16210938 105.2271875 84.73046875 105.859375 C76.92168431 116.0310481 65.25829456 120.19963914 53 122 C38.39971679 123.26471751 25.36983181 119.91582824 13.5390625 111.18359375 C5.08381584 103.42485208 0.52383791 92.39494483 -0.10963821 81.03365707 C-0.28193602 75.31256715 -0.22948451 69.58999423 -0.1953125 63.8671875 C-0.19157639 62.02060093 -0.18873224 60.17401237 -0.18673706 58.3274231 C-0.1791477 53.49746097 -0.1595402 48.66762158 -0.1373291 43.83770752 C-0.11676882 38.89703023 -0.10771369 33.95633286 -0.09765625 29.015625 C-0.07628933 19.34368775 -0.04114613 9.67187335 0 0 Z " fill="#EFEFEF" transform="translate(463,771)"/>
<path d="M0 0 C7.26 0 14.52 0 22 0 C22.33 15.84 22.66 31.68 23 48 C25.64 44.7 28.28 41.4 31 38 C33.10145629 35.41437224 35.20532823 32.83094415 37.3125 30.25 C41.56145641 25.03161244 45.77828542 19.79024816 49.9375 14.5 C50.57328979 13.69224121 50.57328979 13.69224121 51.22192383 12.86816406 C51.6320874 12.34448242 52.04225098 11.82080078 52.46484375 11.28125 C53.09374512 10.50491211 53.09374512 10.50491211 53.73535156 9.71289062 C55.07449601 7.98105569 55.07449601 7.98105569 56.17871094 5.83398438 C57.61009942 3.40502658 58.78635673 1.76030515 61 0 C65.49559666 -0.9796791 69.80163081 -0.7576546 74.375 -0.5 C75.58800781 -0.46390625 76.80101562 -0.4278125 78.05078125 -0.390625 C81.03710076 -0.29656769 84.01691402 -0.16526792 87 0 C85.21094836 3.79710875 82.80839971 6.73323071 80.0625 9.875 C76.13677849 14.43818206 72.32046996 19.06089078 68.625 23.8125 C62.97922582 31.06592276 57.18224689 38.1914159 51.37158203 45.31298828 C49.56787415 47.53150403 47.78142082 49.76356567 46 52 C47.60383614 56.84902506 50.35354347 60.59251552 53.3125 64.6875 C53.84230469 65.42935547 54.37210938 66.17121094 54.91796875 66.93554688 C56.60576744 69.29489927 58.30160591 71.6482654 60 74 C60.54188965 74.75104004 61.0837793 75.50208008 61.64208984 76.27587891 C63.80130301 79.26701081 65.96173631 82.25724136 68.12646484 85.24438477 C72.42568003 91.1824097 76.66392423 97.16166632 80.8671875 103.16796875 C83.7716514 107.30662412 86.76898174 111.34746813 89.88305664 115.33154297 C91 117 91 117 91 119 C82.45553778 121.18127082 72.20872829 123.19075013 64 119 C54.84816972 111.51643335 49.14629325 99.40024638 43.46386719 89.25244141 C40.51912775 84.05512475 37.10802091 79.24409183 33.60400391 74.4128418 C32 72 32 72 32 70 C31.34 70 30.68 70 30 70 C29.773125 70.53625 29.54625 71.0725 29.3125 71.625 C28 74 28 74 25.4621582 76.57861328 C22.17535945 80.49194712 22.26931125 84.17164836 22.29296875 89.1171875 C22.27784744 89.97434357 22.26272614 90.83149963 22.24714661 91.71463013 C22.20438015 94.43502333 22.19544258 97.1543046 22.1875 99.875 C22.16434701 101.72659183 22.13898 103.57815739 22.11132812 105.4296875 C22.04444047 109.95372527 22.02337012 114.47469427 22 119 C14.74 119 7.48 119 0 119 C0 79.73 0 40.46 0 0 Z " fill="#F0F0EF" transform="translate(71,771)"/>
<path d="M0 0 C3.74469053 2.42700995 6.27628925 4.97939176 8.9375 8.5625 C1.4375 16.0625 1.4375 16.0625 -6.0625 23.5625 C-6.68125 22.840625 -7.3 22.11875 -7.9375 21.375 C-13.46514503 15.81567792 -21.52416737 12.51614806 -29.3125 12.25 C-34.14278205 12.30588756 -38.22095198 13.5777001 -42.0625 16.5625 C-44.7224584 20.70406389 -44.68547468 24.79466715 -44.0625 29.5625 C-42.21522371 34.13670795 -39.80461993 35.93458454 -35.5 38 C-31.03975869 39.86693815 -26.50153462 41.50535527 -21.95629883 43.15063477 C1.53568835 51.65529427 1.53568835 51.65529427 7.22265625 61.87109375 C11.77073207 71.7986141 12.81535246 83.0025143 9.375 93.5 C5.50857908 102.66232844 -1.83269905 109.57037911 -11 113.3125 C-24.71416638 117.92734306 -41.32105315 116.77080504 -54.48046875 111.0859375 C-61.4861999 107.55485551 -66.94708356 103.51245568 -72.0625 97.5625 C-69.895205 93.66978568 -67.38836971 90.52540186 -64.375 87.25 C-63.16263672 85.92548828 -63.16263672 85.92548828 -61.92578125 84.57421875 C-61.31089844 83.91035156 -60.69601562 83.24648438 -60.0625 82.5625 C-57.20620404 83.86363265 -55.14039787 85.27838005 -52.875 87.4375 C-45.7371449 93.51734317 -39.6382454 94.93036926 -30.375 95.0625 C-29.55483398 95.08103027 -28.73466797 95.09956055 -27.88964844 95.11865234 C-22.47198281 95.06247078 -19.3686856 94.12555341 -15.0625 90.5625 C-11.49213941 86.63510335 -11.64173938 82.44605356 -11.46875 77.37890625 C-12.2796246 73.53258662 -14.1649249 71.10032786 -17.0625 68.5625 C-20.2679077 66.78382213 -20.2679077 66.78382213 -23.875 65.5625 C-24.52227051 65.31886719 -25.16954102 65.07523438 -25.83642578 64.82421875 C-28.60496496 63.7877606 -31.39031859 62.80100096 -34.17626953 61.8125 C-47.28267228 57.15136672 -58.41979467 52.37805424 -65.4375 39.6875 C-68.62170855 31.79444068 -68.44705824 22.11537216 -65.9921875 14.04296875 C-61.64777798 4.60634151 -54.74406591 -1.7300401 -45.0625 -5.4375 C-30.07574047 -10.5436899 -13.38797382 -8.0786456 0 0 Z " fill="#EFEFEE" transform="translate(810.0625,776.4375)"/>
<path d="M0 0 C10.25113291 6.86968282 15.61799087 17.08995437 18 29 C19.31026366 42.14680279 17.28784785 55.41399346 9 66 C2.51890063 73.16397382 -4.18384851 77.43714663 -13.875 78.375 C-21.61230774 78.72165031 -28.30966068 78.2144965 -35 74 C-35.91458984 73.49146484 -35.91458984 73.49146484 -36.84765625 72.97265625 C-45.12391235 67.861386 -49.83449032 58.98188385 -52.33984375 49.828125 C-54.70170942 36.13209922 -54.36369216 22.45499852 -46.25 10.75 C-34.44724332 -3.61345451 -17.18844046 -9.07764512 0 0 Z " fill="#111111" transform="translate(235,794)"/>
<path d="M0 0 C22.77 0 45.54 0 69 0 C69 6.6 69 13.2 69 20 C53.82 20 38.64 20 23 20 C23 29.9 23 39.8 23 50 C36.2 50 49.4 50 63 50 C63 56.6 63 63.2 63 70 C49.8 70 36.6 70 23 70 C23 86.17 23 102.34 23 119 C15.41 119 7.82 119 0 119 C0 79.73 0 40.46 0 0 Z " fill="#EEEEEE" transform="translate(291,771)"/>
<path d="M0 0 C22.77 0 45.54 0 69 0 C69 6.6 69 13.2 69 20 C53.49 20 37.98 20 22 20 C22 29.9 22 39.8 22 50 C35.2 50 48.4 50 62 50 C62 56.6 62 63.2 62 70 C49.13 70 36.26 70 23 70 C23 86.5 23 103 23 120 C15.41 120 7.82 120 0 120 C0 80.4 0 40.8 0 0 Z " fill="#EEEEEE" transform="translate(377,771)"/>
<path d="M0 0 C0.33 0 0.66 0 1 0 C1 212.52 1 425.04 1 644 C-317.12 644 -635.24 644 -963 644 C-963 432.8 -963 221.6 -963 4 C-962.34 3.67 -961.68 3.34 -961 3 C-961 213.87 -961 424.74 -961 642 C-643.87 642 -326.74 642 0 642 C0 430.14 0 218.28 0 0 Z " fill="#76BBCE" transform="translate(993,74)"/>
<path d="M0 0 C7.26 0 14.52 0 22 0 C22 39.27 22 78.54 22 119 C14.74 119 7.48 119 0 119 C0 79.73 0 40.46 0 0 Z " fill="#EFEFEE" transform="translate(700,771)"/>
<path d="M0 0 C7.2308554 4.39184276 12.28593507 9.9088571 14.80078125 18.09375 C15.99409572 26.9862376 14.32864657 33.71211678 9.92578125 41.34375 C5.88313355 46.57541173 0.88170441 49.84680126 -5.44921875 51.78125 C-6.81046875 51.9359375 -6.81046875 51.9359375 -8.19921875 52.09375 C-8.89660156 52.18140625 -9.59398437 52.2690625 -10.3125 52.359375 C-18.65808356 52.94502999 -25.87457335 49.8151541 -32.1875 44.3828125 C-38.83963049 37.08692745 -39.77230358 30.39035853 -39.54296875 20.69140625 C-38.8356305 13.28846838 -35.49155541 8.60269973 -30.09375 3.63671875 C-21.76088979 -3.1498375 -9.95006322 -4.60217057 0 0 Z " fill="#72AEC2" transform="translate(469.19921875,461.90625)"/>
<path d="M0 0 C0.33 0 0.66 0 1 0 C1.21914063 1.19753906 1.43828125 2.39507813 1.6640625 3.62890625 C6.94557964 31.26057131 19.59716752 54.60291867 43 71 C58.95970592 81.35827363 75.40922615 86.56474831 94 90 C94 90.33 94 90.66 94 91 C62.98 91 31.96 91 0 91 C0 60.97 0 30.94 0 0 Z " fill="#F8F8F8" transform="translate(0,933)"/>
<path d="M0 0 C6.79216294 7.37434833 9.57405804 14.61955895 9.46875 24.4921875 C8.78465305 31.50418119 5.22868736 37.5529947 0.1875 42.375 C-7.73168291 47.05797835 -14.97544197 49.90183069 -24.19140625 47.84375 C-33.20787332 45.03659274 -38.22780576 40.56392677 -42.8125 32.375 C-45.77641401 26.08300508 -45.97732387 19.31617591 -44.0078125 12.65234375 C-40.5614012 4.96328129 -34.61807613 -1.27530166 -26.8125 -4.625 C-17.21907102 -7.52005845 -8.49202382 -4.90650265 0 0 Z " fill="#111111" transform="translate(510.8125,291.625)"/>
<path d="M0 0 C0.33 0 0.66 0 1 0 C1 28.38 1 56.76 1 86 C-29.03 86 -59.06 86 -90 86 C-90 85.67 -90 85.34 -90 85 C-89.41210693 84.87995605 -88.82421387 84.75991211 -88.21850586 84.63623047 C-58.93446002 78.56525227 -33.44069881 67.39160562 -16 42 C-7.83047552 28.90152909 -2.96908169 15.11532498 0 0 Z " fill="#F8F8F8" transform="translate(1023,938)"/>
<path d="M0 0 C3.72994701 2.70342798 6.79770638 6.22431901 8.859375 10.34765625 C9.51628309 18.04748059 9.75861531 24.15914217 4.859375 30.34765625 C0.17449153 35.02030765 -3.68611306 36.52850862 -10.265625 36.78515625 C-17.07002012 36.7395911 -21.22224351 35.01239923 -26.140625 30.34765625 C-30.40312044 24.75313098 -31.05713649 18.20604562 -30.140625 11.34765625 C-27.6458567 5.28153914 -23.59072499 1.26437847 -17.890625 -1.90234375 C-11.46808687 -3.65394506 -5.84224153 -3.25997078 0 0 Z " fill="#101010" transform="translate(569.140625,355.65234375)"/>
<path d="M0 0 C5.04111834 2.84627755 8.09309357 6.73207748 9.6875 12.3125 C10.36062148 18.25840639 9.02137582 22.4641501 5.6875 27.3125 C1.25061845 31.89652303 -2.17323044 33.49820655 -8.5 33.6875 C-13.74781164 33.64690919 -17.03968941 33.22605185 -21.015625 29.7421875 C-25.44680584 24.85721103 -26.74543237 19.99846411 -26.66015625 13.46875 C-25.81824228 8.24699142 -22.45686074 4.37512069 -18.6875 0.875 C-12.96025629 -2.8929235 -6.13273961 -2.84816371 0 0 Z " fill="#71AFC3" transform="translate(556.3125,519.6875)"/>
<path d="M0 0 C7.26 0 14.52 0 22 0 C22 39.27 22 78.54 22 119 C14.74 119 7.48 119 0 119 C0 79.73 0 40.46 0 0 Z M1 1 C1.33 39.28 1.66 77.56 2 117 C7.61 117 13.22 117 19 117 C20.16917183 93.78396448 20.12092046 70.59141602 20.06866455 47.3526001 C20.05826242 42.22270122 20.05383151 37.0927971 20.04882812 31.96289062 C20.03824192 21.97524482 20.02071924 11.98762993 20 2 C13.73 1.67 7.46 1.34 1 1 Z " fill="#E2E2E1" transform="translate(700,771)"/>
<path d="M0 0 C0.66 0 1.32 0 2 0 C2 38.94 2 77.88 2 118 C8.27 118 14.54 118 21 118 C20.99214478 115.78132202 20.99214478 115.78132202 20.98413086 113.51782227 C20.96608762 108.0518453 20.95457048 102.58587099 20.94506836 97.11987305 C20.94002659 94.75007688 20.93319335 92.38028385 20.92456055 90.01049805 C20.9124881 86.61245961 20.90677029 83.21446215 20.90234375 79.81640625 C20.89460182 78.2164254 20.89460182 78.2164254 20.88670349 76.5841217 C20.88659019 75.11270973 20.88659019 75.11270973 20.88647461 73.61157227 C20.884254 72.74331314 20.88203339 71.87505402 20.87974548 70.98048401 C21 69 21 69 22 68 C24.8843382 67.91134792 27.74462158 67.88478704 30.62890625 67.90234375 C31.92525246 67.90446617 31.92525246 67.90446617 33.24778748 67.90663147 C36.01939292 67.91224761 38.7909188 67.92480281 41.5625 67.9375 C43.4368478 67.94251292 45.31119685 67.94707619 47.18554688 67.95117188 C51.79039544 67.96222228 56.39518421 67.9794977 61 68 C61 62.72 61 57.44 61 52 C48.46 52 35.92 52 23 52 C22.67 51.34 22.34 50.68 22 50 C35.2 50 48.4 50 62 50 C62 56.6 62 63.2 62 70 C49.13 70 36.26 70 23 70 C23 86.5 23 103 23 120 C15.41 120 7.82 120 0 120 C0 80.4 0 40.8 0 0 Z " fill="#D8D8D7" transform="translate(377,771)"/>
<path d="M0 0 C0.99 0.33 1.98 0.66 3 1 C3 39.28 3 77.56 3 117 C8.61 117 14.22 117 20 117 C20 101.49 20 85.98 20 70 C20.99 69.505 20.99 69.505 22 69 C22 85.5 22 102 22 119 C14.74 119 7.48 119 0 119 C0 79.73 0 40.46 0 0 Z " fill="#E7E7E7" transform="translate(291,771)"/>
<path d="M0 0 C1.17113799 0.00138269 1.17113799 0.00138269 2.36593533 0.00279331 C3.70584782 0.00073132 3.70584782 0.00073132 5.07282925 -0.00137234 C6.55420376 0.00402058 6.55420376 0.00402058 8.06550503 0.00952244 C9.09952953 0.00937641 10.13355404 0.00923038 11.19891262 0.00907993 C14.63485175 0.00977956 18.07073742 0.01757425 21.50666714 0.02539158 C23.88178382 0.02725558 26.25690089 0.02867957 28.63201809 0.0296793 C34.89727233 0.03350586 41.16250356 0.04333732 47.42774868 0.05438328 C53.81537979 0.06459443 60.2030146 0.06917628 66.59065151 0.0742197 C79.13428115 0.08495947 91.6778948 0.10184656 104.22151089 0.12304783 C105.55313073 2.78628751 105.32747698 4.77132062 105.30380154 7.754426 C105.29676205 8.95198521 105.28972256 10.14954441 105.28246975 11.38339329 C105.26948649 12.71734806 105.25640645 14.05130189 105.2432394 15.38525486 C105.23309933 16.78454376 105.22340536 18.18383596 105.21412563 19.58313084 C105.1876174 23.38872139 105.1548435 27.19423561 105.12097573 30.99976683 C105.08665962 34.97425421 105.05806268 38.94878256 105.02886868 42.92331028 C104.97268915 50.45271407 104.91133862 57.98206656 104.84814733 65.51141441 C104.77646775 74.08200518 104.71052684 82.65263707 104.64507687 91.22327733 C104.51029049 108.85658769 104.36826847 126.48983324 104.22151089 144.12304783 C103.89151089 144.12304783 103.56151089 144.12304783 103.22151089 144.12304783 C103.22151089 97.26304783 103.22151089 50.40304783 103.22151089 2.12304783 C68.57151089 2.12304783 33.92151089 2.12304783 -1.77848911 2.12304783 C-1.77848911 39.08304783 -1.77848911 76.04304783 -1.77848911 114.12304783 C-2.10848911 114.12304783 -2.43848911 114.12304783 -2.77848911 114.12304783 C-2.80181905 99.40695218 -2.81946876 84.69085897 -2.83030128 69.97474861 C-2.83546404 63.14225809 -2.84250635 56.30977904 -2.85392857 49.47729588 C-2.86493618 42.88969478 -2.87076535 36.30210252 -2.87336636 29.71449184 C-2.87522111 27.19496504 -2.87884268 24.67543892 -2.88421917 22.15591717 C-2.89142587 18.64047018 -2.89248021 15.12507322 -2.8920145 11.60962009 C-2.89560978 10.55658192 -2.89920506 9.50354374 -2.90290928 8.41859531 C-2.90084728 6.99033421 -2.90084728 6.99033421 -2.89874363 5.53321934 C-2.89966542 4.70084027 -2.90058722 3.86846121 -2.90153694 3.01085854 C-2.73909681 0.51868763 -2.49683304 0.17274769 0 0 Z " fill="#161C1E" transform="translate(459.778489112854,95.87695217132568)"/>
<path d="M0 0 C7.59 0 15.18 0 23 0 C23 27.06 23 54.12 23 82 C22.34 82 21.68 82 21 82 C21 55.27 21 28.54 21 1 C15.06 1.33 9.12 1.66 3 2 C3 28.4 3 54.8 3 82 C2.34 82 1.68 82 1 82 C0.67 82.99 0.34 83.98 0 85 C0 56.95 0 28.9 0 0 Z " fill="#D8D8D8" transform="translate(534,771)"/>
<path d="M0 0 C6.93 0 13.86 0 21 0 C21 39.27 21 78.54 21 119 C14.73 119 8.46 119 2 119 C2 118.01 2 117.02 2 116 C2.33 116.33 2.66 116.66 3 117 C8.28 117.33 13.56 117.66 19 118 C19 79.72 19 41.44 19 2 C13.06 2 7.12 2 1 2 C1 28.07 1 54.14 1 81 C0.67 81 0.34 81 0 81 C0 54.27 0 27.54 0 0 Z " fill="#FCFCFC" transform="translate(654,771)"/>
<path d="M0 0 C0.68128967 -0.00175232 1.36257935 -0.00350464 2.06451416 -0.00531006 C4.32688917 -0.00972789 6.58918663 -0.00679084 8.8515625 -0.00341797 C10.4171551 -0.00409103 11.9827476 -0.00506107 13.54833984 -0.00631714 C16.83366895 -0.00779402 20.11897092 -0.00563988 23.40429688 -0.00097656 C27.62476766 0.00472073 31.84517486 0.00144167 36.06564331 -0.00454903 C39.29972822 -0.00815491 42.53379795 -0.00701593 45.7678833 -0.00442123 C47.32448331 -0.00375204 48.88108468 -0.00458012 50.43768311 -0.00690079 C52.60953446 -0.00942777 54.78128146 -0.00558612 56.953125 0 C58.19143066 0.00079559 59.42973633 0.00159119 60.70556641 0.00241089 C63.4765625 0.12939453 63.4765625 0.12939453 64.4765625 1.12939453 C64.4765625 8.38939453 64.4765625 15.64939453 64.4765625 23.12939453 C48.9665625 23.12939453 33.4565625 23.12939453 17.4765625 23.12939453 C17.4765625 22.79939453 17.4765625 22.46939453 17.4765625 22.12939453 C32.3265625 22.12939453 47.1765625 22.12939453 62.4765625 22.12939453 C62.4765625 15.52939453 62.4765625 8.92939453 62.4765625 2.12939453 C39.7065625 2.12939453 16.9365625 2.12939453 -6.5234375 2.12939453 C-6.5234375 41.72939453 -6.5234375 81.32939453 -6.5234375 122.12939453 C1.0665625 122.12939453 8.6565625 122.12939453 16.4765625 122.12939453 C16.4765625 122.45939453 16.4765625 122.78939453 16.4765625 123.12939453 C8.5565625 123.12939453 0.6365625 123.12939453 -7.5234375 123.12939453 C-7.54598473 107.23984008 -7.56441679 91.35029824 -7.57524967 75.46073246 C-7.58041258 68.08343497 -7.58745517 60.7061481 -7.59887695 53.32885742 C-7.60882396 46.90107273 -7.61529097 40.47329573 -7.61752599 34.04550356 C-7.61883307 30.64000175 -7.62191875 27.23452195 -7.62916756 23.82902718 C-7.63637356 20.03338412 -7.63742863 16.23778741 -7.63696289 12.44213867 C-7.64055817 11.30494385 -7.64415344 10.16774902 -7.64785767 8.99609375 C-7.646483 7.96819229 -7.64510834 6.94029083 -7.64369202 5.88124084 C-7.64461381 4.98249269 -7.6455356 4.08374453 -7.64648533 3.15776157 C-7.37545428 -1.31001701 -3.68712228 0.00236892 0 0 Z " fill="#060606" transform="translate(383.5234375,768.87060546875)"/>
<path d="M0 0 C5.28 0 10.56 0 16 0 C15.67 0.66 15.34 1.32 15 2 C12.3125 2.37890625 12.3125 2.37890625 9 2.5625 C5.18265388 2.45431019 5.18265388 2.45431019 2 4 C1.89220145 5.47972808 1.85318144 6.96452972 1.84178162 8.44813538 C1.82709839 9.88901772 1.82709839 9.88901772 1.81211853 11.35900879 C1.80636307 12.42139771 1.8006076 13.48378662 1.79467773 14.57836914 C1.78477814 15.69042221 1.77487854 16.80247528 1.76467896 17.94822693 C1.73295477 21.64384798 1.70826353 25.33948191 1.68359375 29.03515625 C1.66303364 31.58963872 1.64203744 34.14411771 1.62062073 36.69859314 C1.57096433 42.74758491 1.52572441 48.7965943 1.48259836 54.84563488 C1.43326753 61.73068575 1.37833405 68.61568831 1.32291877 75.50069249 C1.20902396 89.66708355 1.10240008 103.83352161 1 118 C7.27 117.67 13.54 117.34 20 117 C20 90.93 20 64.86 20 38 C22.47661304 40.47661304 22.23492217 41.88330446 22.24884033 45.26228333 C22.24164978 45.99380112 22.23445923 46.72531891 22.22705078 47.47900391 C22.22734283 48.24982803 22.22763489 49.02065216 22.22793579 49.81483459 C22.22653974 52.36885745 22.21096579 54.92259046 22.1953125 57.4765625 C22.19158334 59.24490194 22.18873591 61.01324345 22.18673706 62.78158569 C22.17909293 67.44069095 22.15943778 72.09967194 22.1373291 76.75872803 C22.11688744 81.51100992 22.10773894 86.26331184 22.09765625 91.015625 C22.07619257 100.34381344 22.04100413 109.67187696 22 119 C14.74 119 7.48 119 0 119 C0 79.73 0 40.46 0 0 Z " fill="#FBFBFB" transform="translate(579,771)"/>
<path d="M0 0 C7.92 0 15.84 0 24 0 C25.7772169 1.7772169 25.11988099 4.152472 25.12442017 6.51863098 C25.12082489 7.30984848 25.11722961 8.10106598 25.11352539 8.91625977 C25.11367142 9.74545929 25.11381744 10.57465881 25.1139679 11.4289856 C25.11326851 14.18315198 25.10547493 16.93725161 25.09765625 19.69140625 C25.09579216 21.59569766 25.09436822 23.49998955 25.09336853 25.40428162 C25.08954263 30.42667963 25.07971173 35.44904892 25.06866455 40.47143555 C25.05845198 45.5922812 25.05387124 50.71313148 25.04882812 55.83398438 C25.03808953 65.88933557 25.02101224 75.9446654 25 86 C24.34 85.67 23.68 85.34 23 85 C23 57.61 23 30.22 23 2 C15.74 2 8.48 2 1 2 C1 30.71 1 59.42 1 89 C0.67 89 0.34 89 0 89 C0 59.63 0 30.26 0 0 Z " fill="#070707" transform="translate(462,769)"/>
<path d="M0 0 C22.11 0 44.22 0 67 0 C67 6.6 67 13.2 67 20 C51.49 20 35.98 20 20 20 C20 29.9 20 39.8 20 50 C19.67 50 19.34 50 19 50 C18.97534496 45.60343827 18.95716158 41.2069128 18.94506836 36.81030273 C18.94002879 35.31355082 18.93319713 33.81680384 18.92456055 32.32006836 C18.91247841 30.17300193 18.90676809 28.02600038 18.90234375 25.87890625 C18.89448853 23.93866577 18.89448853 23.93866577 18.88647461 21.95922852 C19 19 19 19 20 18 C21.41225046 17.9071274 22.82908934 17.88253228 24.24438477 17.88647461 C25.14524307 17.88655014 26.04610138 17.88662567 26.97425842 17.88670349 C27.95341721 17.89186478 28.93257599 17.89702606 29.94140625 17.90234375 C30.93881332 17.9037587 31.9362204 17.90517365 32.96385193 17.90663147 C36.16343124 17.91224886 39.36294169 17.92480429 42.5625 17.9375 C44.72591045 17.94251276 46.88932199 17.94707605 49.05273438 17.95117188 C54.36851629 17.96222394 59.68424646 17.97950021 65 18 C65 12.72 65 7.44 65 2 C43.55 2 22.1 2 0 2 C0 1.34 0 0.68 0 0 Z " fill="#F9F9F9" transform="translate(379,771)"/>
<path d="M0 0 C0.66 0 1.32 0 2 0 C2 9.24 2 18.48 2 28 C5.83625 27.9690625 5.83625 27.9690625 9.75 27.9375 C19.85494167 27.89871488 29.91502828 28.41048182 40 29 C40 29.33 40 29.66 40 30 C26.8 30 13.6 30 0 30 C0 20.1 0 10.2 0 0 Z " fill="#2D2C2C" transform="translate(399,791)"/>
<path d="M0 0 C8.25 0 16.5 0 25 0 C25 5.61 25 11.22 25 17 C24.67 17 24.34 17 24 17 C23.67 12.05 23.34 7.1 23 2 C15.41 2 7.82 2 0 2 C0 1.34 0 0.68 0 0 Z " fill="#FAFBFA" transform="translate(931,770)"/>
<path d="M0 0 C8.91 0 17.82 0 27 0 C26.67 0.66 26.34 1.32 26 2 C21.49248495 3.06739044 17.05523615 3.16420163 12.4375 3.1875 C11.15746094 3.20167969 9.87742187 3.21585938 8.55859375 3.23046875 C5.21178124 3.0137158 2.99037519 2.45213997 0 1 C0 0.67 0 0.34 0 0 Z " fill="#E6E6E6" transform="translate(767,889)"/>
<path d="M0 0 C0.33 0 0.66 0 1 0 C2.14364008 7.49719609 1.75667376 14.46818582 1 22 C-2.03134384 23.01044795 -3.74395943 23.05032949 -6.88671875 22.87890625 C-7.82451172 22.83056641 -8.76230469 22.78222656 -9.72851562 22.73242188 C-10.70498047 22.67634766 -11.68144531 22.62027344 -12.6875 22.5625 C-13.67556641 22.51029297 -14.66363281 22.45808594 -15.68164062 22.40429688 C-18.12141676 22.27464694 -20.56078105 22.13968258 -23 22 C-23 21.67 -23 21.34 -23 21 C-15.74 21 -8.48 21 -1 21 C-0.67 14.07 -0.34 7.14 0 0 Z " fill="#333333" transform="translate(858,869)"/>
<path d="M0 0 C0.33 0.66 0.66 1.32 1 2 C0.25234375 2.06058594 -0.4953125 2.12117187 -1.265625 2.18359375 C-2.25046875 2.26738281 -3.2353125 2.35117187 -4.25 2.4375 C-5.22453125 2.51871094 -6.1990625 2.59992187 -7.203125 2.68359375 C-10.67424746 3.04599612 -10.67424746 3.04599612 -14 4 C-14.33 4.99 -14.66 5.98 -15 7 C-15.99 7 -16.98 7 -18 7 C-16.87059096 3.61177288 -16.51483521 3.37375395 -13.5 1.8125 C-8.96747679 -0.3470174 -4.9351855 -0.41126546 0 0 Z " fill="#232323" transform="translate(785,788)"/>
<path d="M0 0 C0.33 0 0.66 0 1 0 C1 5.61 1 11.22 1 17 C0.67 16.01 0.34 15.02 0 14 C-0.66 14 -1.32 14 -2 14 C-2.1799928 8.78020872 -1.97094808 4.92737019 0 0 Z " fill="#161A1C" transform="translate(429,478)"/>
<path d="M0 0 C1.258125 0.33 2.51625 0.66 3.8125 1 C6.38987302 1.67603227 8.30212925 2 11 2 C11 2.66 11 3.32 11 4 C12.65 3.67 14.3 3.34 16 3 C16 3.99 16 4.98 16 6 C9.95198929 5.45018084 4.69398894 4.09570426 -1 2 C-0.67 1.34 -0.34 0.68 0 0 Z " fill="#1A191A" transform="translate(67,1015)"/>
<path d="M0 0 C1.1570398 3.47111941 1.03396489 6.22631654 0.9375 9.84375 C0.90157821 12.18574877 0.90157821 12.18574877 2 15 C-1 14 -1 14 -2.1875 11.6875 C-3 9 -3 9 -3 5 C-2.34 5 -1.68 5 -1 5 C-1.33 3.68 -1.66 2.36 -2 1 C-1.34 0.67 -0.68 0.34 0 0 Z " fill="#E7E8E8" transform="translate(765,794)"/>
<path d="M0 0 C0.33 0.99 0.66 1.98 1 3 C-4.28 3 -9.56 3 -15 3 C-15 2.67 -15 2.34 -15 2 C-13.43883181 1.66048381 -11.87598662 1.32867456 -10.3125 1 C-9.44238281 0.814375 -8.57226562 0.62875 -7.67578125 0.4375 C-5.06287036 0.01027953 -2.64186962 -0.07616201 0 0 Z " fill="#E6E6E7" transform="translate(948,1021)"/>
<path d="M0 0 C0.33 0 0.66 0 1 0 C1.99 5.61 2.98 11.22 4 17 C0 13 0 13 -0.390625 9.765625 C-0.34421875 8.60546875 -0.2978125 7.4453125 -0.25 6.25 C-0.21390625 5.07953125 -0.1778125 3.9090625 -0.140625 2.703125 C-0.09421875 1.81109375 -0.0478125 0.9190625 0 0 Z " fill="#D6D6D6" transform="translate(0,933)"/>
<path d="M0 0 C0.79921875 0.11085938 1.5984375 0.22171875 2.421875 0.3359375 C3.32679688 0.47902344 3.32679688 0.47902344 4.25 0.625 C4.25 1.285 4.25 1.945 4.25 2.625 C5.57 2.955 6.89 3.285 8.25 3.625 C7.92 4.285 7.59 4.945 7.25 5.625 C6.095 5.150625 4.94 4.67625 3.75 4.1875 C-0.43570332 2.60291232 -4.30238986 2.02210805 -8.75 1.625 C-5.5750906 -0.2828584 -3.64414789 -0.5359041 0 0 Z " fill="#1B1B1A" transform="translate(232.75,768.375)"/>
<path d="M0 0 C0.66 0.66 1.32 1.32 2 2 C0.21825212 4.30142435 -1.16304165 5.80034391 -4.046875 6.48828125 C-6.0246611 6.72323102 -8.01271872 6.86751458 -10 7 C-7.96153279 5.64102186 -5.91973686 4.28702633 -3.875 2.9375 C-1.21312042 1.27685736 -1.21312042 1.27685736 0 0 Z " fill="#E7E7E7" transform="translate(528,865)"/>
<path d="M0 0 C0.66 0 1.32 0 2 0 C2 4.29 2 8.58 2 13 C-1.6812654 8.09164613 -1.38327454 6.84493669 -1 1 C-0.67 0.67 -0.34 0.34 0 0 Z " fill="#E6E6E5" transform="translate(939,833)"/>
<path d="M0 0 C-0.66 1.32 -1.32 2.64 -2 4 C-2.99 4 -3.98 4 -5 4 C-5 3.34 -5 2.68 -5 2 C-8.96 2 -12.92 2 -17 2 C-17 1.67 -17 1.34 -17 1 C-14.54171921 0.83252588 -12.08338135 0.6659856 -9.625 0.5 C-8.92632812 0.45230469 -8.22765625 0.40460937 -7.5078125 0.35546875 C-2.2265625 0 -2.2265625 0 0 0 Z " fill="#E8E8E7" transform="translate(158,771)"/>
<path d="M0 0 C0.66 0.33 1.32 0.66 2 1 C0.90344712 2.31886772 -0.20253423 3.62990057 -1.3125 4.9375 C-1.92738281 5.66839844 -2.54226563 6.39929688 -3.17578125 7.15234375 C-5 9 -5 9 -8 10 C-6.34908222 5.70761377 -3.26245434 3.1206085 0 0 Z " fill="#0A0707" transform="translate(740,620)"/>
<path d="M0 0 C0.66 0 1.32 0 2 0 C2.25532751 3.06393013 2.21861333 4.63233212 0.625 7.3125 C-0.179375 8.1478125 -0.179375 8.1478125 -1 9 C-1.66 9 -2.32 9 -3 9 C-2.01 6.03 -1.02 3.06 0 0 Z " fill="#222222" transform="translate(935,811)"/>
<path d="M0 0 C2.24024365 2.24024365 2.74778281 2.88932136 3 6 C2.17747461 8.45175837 1.12505813 10.65987909 0 13 C-0.33 13 -0.66 13 -1 13 C-1.07654536 8.48382401 -1.10228696 4.40914783 0 0 Z " fill="#2F2F30" transform="translate(863,810)"/>
<path d="M0 0 C0.99 0 1.98 0 3 0 C3.33 1.98 3.66 3.96 4 6 C4.99 6.33 5.98 6.66 7 7 C6.34 7.66 5.68 8.32 5 9 C4.16094435 7.87926138 3.32892169 6.75325453 2.5 5.625 C2.0359375 4.99851562 1.571875 4.37203125 1.09375 3.7265625 C0 2 0 2 0 0 Z " fill="#14191B" transform="translate(540,379)"/>
<path d="M0 0 C0.66 0.33 1.32 0.66 2 1 C2.1875 3.8125 2.1875 3.8125 2 7 C0.48828125 8.69921875 0.48828125 8.69921875 -1 10 C-1.02689216 8.52093108 -1.04634621 7.04172517 -1.0625 5.5625 C-1.07410156 4.73878906 -1.08570313 3.91507813 -1.09765625 3.06640625 C-1 1 -1 1 0 0 Z " fill="#E9E9E8" transform="translate(858,849)"/>
<path d="M0 0 C3.465 1.98 3.465 1.98 7 4 C7 4.99 7 5.98 7 7 C6.67 6.34 6.34 5.68 6 5 C4.02111039 4.27306096 2.02045442 3.60183749 0 3 C0 2.01 0 1.02 0 0 Z " fill="#1B1B1B" transform="translate(795,792)"/>
<path d="M0 0 C-2.6855594 2.6855594 -5.37621328 3.06049974 -9 4 C-9 3.01 -9 2.02 -9 1 C-5.92677456 0.08941469 -3.19902639 -0.08886184 0 0 Z " fill="#181818" transform="translate(238,890)"/>
<path d="M0 0 C0.66 0 1.32 0 2 0 C1.50168276 3.68754757 0.89932357 5.60490662 -2 8 C-1.125 1.125 -1.125 1.125 0 0 Z " fill="#171717" transform="translate(797,859)"/>
</svg>
